<?xml version="1.0" encoding="UTF-8" standalone="no"?>
<!DOCTYPE svg PUBLIC "-//W3C//DTD SVG 1.1//EN"
 "http://www.w3.org/Graphics/SVG/1.1/DTD/svg11.dtd">
<!-- Generated by graphviz version 2.26.3 (20100126.1600)
 -->
<!-- Title: models_diagram Pages: 1 -->
<svg width="2398pt" height="1010pt"
 viewBox="0.00 0.00 2398.00 1010.00" xmlns="http://www.w3.org/2000/svg" xmlns:xlink="http://www.w3.org/1999/xlink">
<g id="graph1" class="graph" transform="scale(1 1) rotate(0) translate(4 1006)">
<title>models_diagram</title>
<polygon fill="white" stroke="white" points="-4,5 -4,-1006 2395,-1006 2395,5 -4,5"/>
<!-- _diagram_info -->
<g id="node1" class="node"><title>_diagram_info</title>
<text text-anchor="start" x="166" y="-985.8" font-family="Times Roman,serif" font-size="13.00">Models diagram</text>
<text text-anchor="start" x="166" y="-968.8" font-family="Times Roman,serif" font-size="13.00">Date: Out 23 2011 &#45; 09:26</text>
<text text-anchor="start" x="166" y="-951.8" font-family="Times Roman,serif" font-size="13.00">Migration version: 20111022203439</text>
<text text-anchor="start" x="166" y="-934.8" font-family="Times Roman,serif" font-size="13.00">Generated by RailRoady 1.0.2</text>
<text text-anchor="start" x="166" y="-917.8" font-family="Times Roman,serif" font-size="13.00">http://railroady.prestonlee.com</text>
</g>
<!-- Diretor -->
<g id="node2" class="node"><title>Diretor</title>
<ellipse fill="none" stroke="black" cx="485" cy="-187" rx="46.1672" ry="18.3848"/>
<text text-anchor="middle" x="485" y="-183.4" font-family="Times Roman,serif" font-size="14.00">Diretor</text>
</g>
<!-- User -->
<g id="node3" class="node"><title>User</title>
<ellipse fill="none" stroke="black" cx="1639" cy="-955" rx="33.9411" ry="18.3848"/>
<text text-anchor="middle" x="1639" y="-951.4" font-family="Times Roman,serif" font-size="14.00">User</text>
</g>
<!-- Role -->
<g id="node11" class="node"><title>Role</title>
<ellipse fill="none" stroke="black" cx="1590" cy="-835" rx="32.0265" ry="18.3848"/>
<text text-anchor="middle" x="1590" y="-831.4" font-family="Times Roman,serif" font-size="14.00">Role</text>
</g>
<!-- User&#45;&gt;Role -->
<g id="edge4" class="edge"><title>User&#45;&gt;Role</title>
<path fill="none" stroke="black" d="M1627.71,-927.34C1619.81,-908.003 1609.3,-882.276 1601.39,-862.89"/>
<polygon fill="black" stroke="black" points="1627.78,-927.517 1627.39,-938.476 1629.67,-932.146 1631.56,-936.775 1631.56,-936.775 1631.56,-936.775 1629.67,-932.146 1635.72,-935.073 1627.78,-927.517 1627.78,-927.517"/>
<polygon fill="black" stroke="black" points="1601.29,-862.655 1601.68,-851.696 1599.4,-858.026 1597.51,-853.397 1597.51,-853.397 1597.51,-853.397 1599.4,-858.026 1593.35,-855.098 1601.29,-862.655 1601.29,-862.655"/>
</g>
<!-- Usuario -->
<g id="node17" class="node"><title>Usuario</title>
<ellipse fill="none" stroke="black" cx="1689" cy="-835" rx="48.7904" ry="18.3848"/>
<text text-anchor="middle" x="1689" y="-831.4" font-family="Times Roman,serif" font-size="14.00">Usuario</text>
</g>
<!-- User&#45;&gt;Usuario -->
<g id="edge50" class="edge"><title>User&#45;&gt;Usuario</title>
<path fill="none" stroke="black" d="M1646.59,-936.775C1655.99,-914.22 1671.9,-876.03 1681.33,-853.397"/>
</g>
<!-- RecadCargo -->
<g id="node4" class="node"><title>RecadCargo</title>
<ellipse fill="none" stroke="black" cx="1825" cy="-835" rx="68.7979" ry="18.3848"/>
<text text-anchor="middle" x="1825" y="-831.4" font-family="Times Roman,serif" font-size="14.00">RecadCargo</text>
</g>
<!-- TipoDestino -->
<g id="node5" class="node"><title>TipoDestino</title>
<ellipse fill="none" stroke="black" cx="1202" cy="-955" rx="68.7979" ry="18.3848"/>
<text text-anchor="middle" x="1202" y="-951.4" font-family="Times Roman,serif" font-size="14.00">TipoDestino</text>
</g>
<!-- Escola -->
<g id="node16" class="node"><title>Escola</title>
<ellipse fill="none" stroke="black" cx="517" cy="-759" rx="41.2167" ry="18.3848"/>
<text text-anchor="middle" x="517" y="-755.4" font-family="Times Roman,serif" font-size="14.00">Escola</text>
</g>
<!-- TipoDestino&#45;&gt;Escola -->
<g id="edge10" class="edge"><title>TipoDestino&#45;&gt;Escola</title>
<path fill="none" stroke="black" d="M1133.53,-944.717C995.008,-923.597 690.997,-875.511 648,-854 625.78,-842.884 626.688,-831.154 607,-816 589.402,-802.455 568.514,-789.076 551.292,-778.688"/>
<ellipse fill="none" stroke="black" cx="1137.65" cy="-945.345" rx="4.00001" ry="4.00001"/>
<polygon fill="black" stroke="black" points="551.248,-778.662 544.961,-769.678 546.953,-776.103 542.658,-773.543 542.658,-773.543 542.658,-773.543 546.953,-776.103 540.354,-777.409 551.248,-778.662 551.248,-778.662"/>
</g>
<!-- Departamento -->
<g id="node23" class="node"><title>Departamento</title>
<ellipse fill="none" stroke="black" cx="1446" cy="-759" rx="82.2301" ry="18.3848"/>
<text text-anchor="middle" x="1446" y="-755.4" font-family="Times Roman,serif" font-size="14.00">Departamento</text>
</g>
<!-- TipoDestino&#45;&gt;Departamento -->
<g id="edge6" class="edge"><title>TipoDestino&#45;&gt;Departamento</title>
<path fill="none" stroke="black" d="M1233.86,-932.756C1262.03,-912.8 1303.96,-882.372 1339,-854 1367.2,-831.166 1398.05,-803.462 1419.35,-783.879"/>
<ellipse fill="none" stroke="black" cx="1230.28" cy="-935.288" rx="4.00002" ry="4.00002"/>
<polygon fill="black" stroke="black" points="1419.39,-783.839 1429.79,-780.362 1423.07,-780.447 1426.74,-777.056 1426.74,-777.056 1426.74,-777.056 1423.07,-780.447 1423.69,-773.749 1419.39,-783.839 1419.39,-783.839"/>
</g>
<!-- Orgao -->
<g id="node42" class="node"><title>Orgao</title>
<ellipse fill="none" stroke="black" cx="1446" cy="-835" rx="41.2167" ry="18.3848"/>
<text text-anchor="middle" x="1446" y="-831.4" font-family="Times Roman,serif" font-size="14.00">Orgao</text>
</g>
<!-- TipoDestino&#45;&gt;Orgao -->
<g id="edge8" class="edge"><title>TipoDestino&#45;&gt;Orgao</title>
<path fill="none" stroke="black" d="M1232.31,-932.9C1246.2,-923.804 1263.28,-914.01 1280,-908 1331.17,-889.613 1353.72,-916.844 1401,-890 1412.82,-883.29 1422.8,-872.171 1430.33,-861.68"/>
<ellipse fill="none" stroke="black" cx="1228.67" cy="-935.34" rx="4.00002" ry="4.00002"/>
<polygon fill="black" stroke="black" points="1430.5,-861.429 1439.81,-855.633 1433.29,-857.277 1436.07,-853.125 1436.07,-853.125 1436.07,-853.125 1433.29,-857.277 1432.34,-850.618 1430.5,-861.429 1430.5,-861.429"/>
</g>
<!-- BoletimFuncional -->
<g id="node6" class="node"><title>BoletimFuncional</title>
<ellipse fill="none" stroke="black" cx="1167" cy="-187" rx="94.7523" ry="18.3848"/>
<text text-anchor="middle" x="1167" y="-183.4" font-family="Times Roman,serif" font-size="14.00">BoletimFuncional</text>
</g>
<!-- NivelCargo -->
<g id="node7" class="node"><title>NivelCargo</title>
<ellipse fill="none" stroke="black" cx="953" cy="-463" rx="65.0538" ry="18.3848"/>
<text text-anchor="middle" x="953" y="-459.4" font-family="Times Roman,serif" font-size="14.00">NivelCargo</text>
</g>
<!-- DescricaoCargo -->
<g id="node40" class="node"><title>DescricaoCargo</title>
<ellipse fill="none" stroke="black" cx="953" cy="-371" rx="86.9741" ry="18.3848"/>
<text text-anchor="middle" x="953" y="-367.4" font-family="Times Roman,serif" font-size="14.00">DescricaoCargo</text>
</g>
<!-- NivelCargo&#45;&gt;DescricaoCargo -->
<g id="edge12" class="edge"><title>NivelCargo&#45;&gt;DescricaoCargo</title>
<path fill="none" stroke="black" d="M953,-436.029C953,-424.599 953,-411.267 953,-399.66"/>
<ellipse fill="none" stroke="black" cx="953" cy="-440.382" rx="4" ry="4"/>
<polygon fill="black" stroke="black" points="953,-399.59 957.5,-389.59 953,-394.59 953,-389.59 953,-389.59 953,-389.59 953,-394.59 948.5,-389.59 953,-399.59 953,-399.59"/>
</g>
<!-- Cidade -->
<g id="node8" class="node"><title>Cidade</title>
<ellipse fill="none" stroke="black" cx="470" cy="-835" rx="44.0472" ry="18.3848"/>
<text text-anchor="middle" x="470" y="-831.4" font-family="Times Roman,serif" font-size="14.00">Cidade</text>
</g>
<!-- Cidade&#45;&gt;Escola -->
<g id="edge16" class="edge"><title>Cidade&#45;&gt;Escola</title>
<path fill="none" stroke="black" d="M485.377,-810.135C490.254,-802.249 495.663,-793.503 500.608,-785.506"/>
<ellipse fill="none" stroke="black" cx="483.242" cy="-813.587" rx="4.00002" ry="4.00002"/>
<polygon fill="black" stroke="black" points="500.682,-785.387 509.769,-779.249 503.312,-781.134 505.942,-776.882 505.942,-776.882 505.942,-776.882 503.312,-781.134 502.114,-774.515 500.682,-785.387 500.682,-785.387"/>
</g>
<!-- Funcionario -->
<g id="node41" class="node"><title>Funcionario</title>
<ellipse fill="none" stroke="black" cx="1258" cy="-279" rx="67.8823" ry="18.3848"/>
<text text-anchor="middle" x="1258" y="-275.4" font-family="Times Roman,serif" font-size="14.00">Funcionario</text>
</g>
<!-- Cidade&#45;&gt;Funcionario -->
<g id="edge14" class="edge"><title>Cidade&#45;&gt;Funcionario</title>
<path fill="none" stroke="black" d="M418.624,-831.273C304.124,-822.276 38,-797.253 38,-759 38,-759 38,-759 38,-417 38,-386.902 33.4754,-370.774 57,-352 100.955,-316.921 921.001,-289.198 1180.18,-281.282"/>
<ellipse fill="none" stroke="black" cx="422.612" cy="-831.582" rx="4" ry="4"/>
<polygon fill="black" stroke="black" points="1180.27,-281.279 1190.4,-285.473 1185.26,-281.127 1190.26,-280.975 1190.26,-280.975 1190.26,-280.975 1185.26,-281.127 1190.12,-276.477 1180.27,-281.279 1180.27,-281.279"/>
</g>
<!-- Serie -->
<g id="node9" class="node"><title>Serie</title>
<ellipse fill="none" stroke="black" cx="483" cy="-555" rx="36.7696" ry="18.3848"/>
<text text-anchor="middle" x="483" y="-551.4" font-family="Times Roman,serif" font-size="14.00">Serie</text>
</g>
<!-- Disciplina -->
<g id="node10" class="node"><title>Disciplina</title>
<ellipse fill="none" stroke="black" cx="451" cy="-463" rx="57.9828" ry="18.3848"/>
<text text-anchor="middle" x="451" y="-459.4" font-family="Times Roman,serif" font-size="14.00">Disciplina</text>
</g>
<!-- Serie&#45;&gt;Disciplina -->
<g id="edge18" class="edge"><title>Serie&#45;&gt;Disciplina</title>
<path fill="none" stroke="black" d="M493.681,-526.829C495.462,-517.966 495.701,-508.325 492,-500 489.911,-495.302 486.899,-490.948 483.441,-487.001"/>
<polygon fill="black" stroke="black" points="493.61,-527.091 486.678,-535.587 492.318,-531.921 491.025,-536.751 491.025,-536.751 491.025,-536.751 492.318,-531.921 495.372,-537.914 493.61,-527.091 493.61,-527.091"/>
<polygon fill="black" stroke="black" points="483.439,-487 479.55,-476.747 479.904,-483.464 476.368,-479.928 476.368,-479.928 476.368,-479.928 479.904,-483.464 473.186,-483.11 483.439,-487 483.439,-487"/>
</g>
<!-- Matrize -->
<g id="node45" class="node"><title>Matrize</title>
<ellipse fill="none" stroke="black" cx="517" cy="-647" rx="48.7904" ry="18.3848"/>
<text text-anchor="middle" x="517" y="-643.4" font-family="Times Roman,serif" font-size="14.00">Matrize</text>
</g>
<!-- Serie&#45;&gt;Matrize -->
<g id="edge20" class="edge"><title>Serie&#45;&gt;Matrize</title>
<path fill="none" stroke="black" d="M472.202,-583.224C470.414,-592.09 470.201,-601.72 474,-610 476.361,-615.147 479.831,-619.849 483.793,-624.045"/>
<polygon fill="black" stroke="black" points="472.276,-582.949 479.223,-574.464 473.577,-578.121 474.878,-573.293 474.878,-573.293 474.878,-573.293 473.577,-578.121 470.533,-572.122 472.276,-582.949 472.276,-582.949"/>
<polygon fill="black" stroke="black" points="483.995,-624.233 488.257,-634.337 487.658,-627.637 491.321,-631.04 491.321,-631.04 491.321,-631.04 487.658,-627.637 494.384,-627.744 483.995,-624.233 483.995,-624.233"/>
</g>
<!-- Disciplina&#45;&gt;Serie -->
<g id="edge30" class="edge"><title>Disciplina&#45;&gt;Serie</title>
<path fill="none" stroke="black" d="M444.887,-491.612C444.214,-500.337 444.731,-509.788 448,-518 449.953,-522.906 452.899,-527.537 456.269,-531.753"/>
<polygon fill="black" stroke="black" points="444.917,-491.38 450.657,-482.036 445.556,-486.42 446.194,-481.461 446.194,-481.461 446.194,-481.461 445.556,-486.42 441.731,-480.887 444.917,-491.38 444.917,-491.38"/>
<polygon fill="black" stroke="black" points="456.407,-531.906 459.788,-542.337 459.765,-535.611 463.122,-539.316 463.122,-539.316 463.122,-539.316 459.765,-535.611 466.457,-536.294 456.407,-531.906 456.407,-531.906"/>
<text text-anchor="middle" x="468" y="-505.4" font-family="Times Roman,serif" font-size="14.00">series</text>
</g>
<!-- EspecificarLotacao -->
<g id="node27" class="node"><title>EspecificarLotacao</title>
<ellipse fill="none" stroke="black" cx="167" cy="-371" rx="101.116" ry="18.3848"/>
<text text-anchor="middle" x="167" y="-367.4" font-family="Times Roman,serif" font-size="14.00">EspecificarLotacao</text>
</g>
<!-- Disciplina&#45;&gt;EspecificarLotacao -->
<g id="edge24" class="edge"><title>Disciplina&#45;&gt;EspecificarLotacao</title>
<path fill="none" stroke="black" d="M387.438,-454.13C352.953,-448.244 309.945,-439.143 273,-426 249.561,-417.662 224.806,-405.056 205.118,-394.016"/>
<polygon fill="black" stroke="black" points="387.522,-454.144 396.651,-460.219 392.454,-454.962 397.387,-455.78 397.387,-455.78 397.387,-455.78 392.454,-454.962 398.123,-451.34 387.522,-454.144 387.522,-454.144"/>
<polygon fill="black" stroke="black" points="204.857,-393.867 198.401,-385.002 200.514,-391.389 196.171,-388.911 196.171,-388.911 196.171,-388.911 200.514,-391.389 193.941,-392.82 204.857,-393.867 204.857,-393.867"/>
<text text-anchor="middle" x="333.5" y="-413.4" font-family="Times Roman,serif" font-size="14.00">fator_de_lotacoes</text>
</g>
<!-- Curriculo -->
<g id="node34" class="node"><title>Curriculo</title>
<ellipse fill="none" stroke="black" cx="510" cy="-371" rx="55.8614" ry="18.3848"/>
<text text-anchor="middle" x="510" y="-367.4" font-family="Times Roman,serif" font-size="14.00">Curriculo</text>
</g>
<!-- Disciplina&#45;&gt;Curriculo -->
<g id="edge28" class="edge"><title>Disciplina&#45;&gt;Curriculo</title>
<path fill="none" stroke="black" d="M467.004,-438.045C474.975,-425.615 484.622,-410.572 492.757,-397.887"/>
<ellipse fill="none" stroke="black" cx="464.816" cy="-441.457" rx="4.00002" ry="4.00002"/>
<polygon fill="black" stroke="black" points="492.969,-397.556 502.156,-391.568 495.669,-393.347 498.368,-389.138 498.368,-389.138 498.368,-389.138 495.669,-393.347 494.58,-386.709 492.969,-397.556 492.969,-397.556"/>
</g>
<!-- FatorLotacao -->
<g id="node39" class="node"><title>FatorLotacao</title>
<ellipse fill="none" stroke="black" cx="361" cy="-371" rx="74.9533" ry="18.3848"/>
<text text-anchor="middle" x="361" y="-367.4" font-family="Times Roman,serif" font-size="14.00">FatorLotacao</text>
</g>
<!-- Disciplina&#45;&gt;FatorLotacao -->
<g id="edge26" class="edge"><title>Disciplina&#45;&gt;FatorLotacao</title>
<path fill="none" stroke="black" d="M427.797,-439.281C414.972,-426.171 399.032,-409.877 385.941,-396.495"/>
<ellipse fill="none" stroke="black" cx="430.85" cy="-442.402" rx="4.00002" ry="4.00002"/>
<polygon fill="black" stroke="black" points="385.6,-396.146 381.823,-385.851 382.103,-392.572 378.607,-388.998 378.607,-388.998 378.607,-388.998 382.103,-392.572 375.39,-392.145 385.6,-396.146 385.6,-396.146"/>
<text text-anchor="middle" x="439.5" y="-413.4" font-family="Times Roman,serif" font-size="14.00">fatores</text>
</g>
<!-- Disciplina&#45;&gt;DescricaoCargo -->
<g id="edge22" class="edge"><title>Disciplina&#45;&gt;DescricaoCargo</title>
<path fill="none" stroke="black" d="M512.33,-452.317C591.882,-438.381 734.93,-413.052 857,-390 864.313,-388.619 871.934,-387.154 879.544,-385.675"/>
<polygon fill="black" stroke="black" points="511.857,-452.4 501.231,-449.691 506.932,-453.262 502.007,-454.124 502.007,-454.124 502.007,-454.124 506.932,-453.262 502.782,-458.556 511.857,-452.4 511.857,-452.4"/>
<polygon fill="black" stroke="black" points="879.7,-385.645 890.377,-388.144 884.607,-384.686 889.514,-383.728 889.514,-383.728 889.514,-383.728 884.607,-384.686 888.652,-379.311 879.7,-385.645 879.7,-385.645"/>
</g>
<!-- Ambiente -->
<g id="node12" class="node"><title>Ambiente</title>
<ellipse fill="none" stroke="black" cx="392" cy="-647" rx="58.1882" ry="18.3848"/>
<text text-anchor="middle" x="392" y="-643.4" font-family="Times Roman,serif" font-size="14.00">Ambiente</text>
</g>
<!-- Turma -->
<g id="node14" class="node"><title>Turma</title>
<ellipse fill="none" stroke="black" cx="328" cy="-555" rx="41.2167" ry="18.3848"/>
<text text-anchor="middle" x="328" y="-551.4" font-family="Times Roman,serif" font-size="14.00">Turma</text>
</g>
<!-- Ambiente&#45;&gt;Turma -->
<g id="edge32" class="edge"><title>Ambiente&#45;&gt;Turma</title>
<path fill="none" stroke="black" d="M374.608,-621.999C365.816,-609.36 355.151,-594.029 346.242,-581.223"/>
<ellipse fill="none" stroke="black" cx="377.071" cy="-625.54" rx="4.00002" ry="4.00002"/>
<polygon fill="black" stroke="black" points="346.111,-581.035 344.094,-570.256 343.256,-576.93 340.4,-572.825 340.4,-572.825 340.4,-572.825 343.256,-576.93 336.706,-575.395 346.111,-581.035 346.111,-581.035"/>
</g>
<!-- RecadPessoa -->
<g id="node13" class="node"><title>RecadPessoa</title>
<ellipse fill="none" stroke="black" cx="1825" cy="-955" rx="73.0388" ry="18.3848"/>
<text text-anchor="middle" x="1825" y="-951.4" font-family="Times Roman,serif" font-size="14.00">RecadPessoa</text>
</g>
<!-- RecadPessoa&#45;&gt;RecadCargo -->
<g id="edge34" class="edge"><title>RecadPessoa&#45;&gt;RecadCargo</title>
<path fill="none" stroke="black" d="M1825,-928.053C1825,-908.923 1825,-883.278 1825,-863.755"/>
<ellipse fill="none" stroke="black" cx="1825" cy="-932.25" rx="4" ry="4"/>
<polygon fill="black" stroke="black" points="1825,-863.618 1829.5,-853.618 1825,-858.618 1825,-853.618 1825,-853.618 1825,-853.618 1825,-858.618 1820.5,-853.618 1825,-863.618 1825,-863.618"/>
<text text-anchor="middle" x="1828.5" y="-877.4" font-family="Times Roman,serif" font-size="14.00">c</text>
</g>
<!-- Processo -->
<g id="node15" class="node"><title>Processo</title>
<ellipse fill="none" stroke="black" cx="1160" cy="-111" rx="53.9477" ry="18.3848"/>
<text text-anchor="middle" x="1160" y="-107.4" font-family="Times Roman,serif" font-size="14.00">Processo</text>
</g>
<!-- Statu -->
<g id="node67" class="node"><title>Statu</title>
<ellipse fill="none" stroke="black" cx="1160" cy="-19" rx="38.8909" ry="18.3848"/>
<text text-anchor="middle" x="1160" y="-15.4" font-family="Times Roman,serif" font-size="14.00">Statu</text>
</g>
<!-- Processo&#45;&gt;Statu -->
<g id="edge36" class="edge"><title>Processo&#45;&gt;Statu</title>
<path fill="none" stroke="black" d="M1160,-84.029C1160,-72.5994 1160,-59.2671 1160,-47.6601"/>
<ellipse fill="none" stroke="black" cx="1160" cy="-88.3824" rx="4" ry="4"/>
<polygon fill="black" stroke="black" points="1160,-47.5899 1164.5,-37.5898 1160,-42.5899 1160,-37.5899 1160,-37.5899 1160,-37.5899 1160,-42.5899 1155.5,-37.5899 1160,-47.5899 1160,-47.5899"/>
<text text-anchor="middle" x="1189" y="-61.4" font-family="Times Roman,serif" font-size="14.00">statuses</text>
</g>
<!-- Escola&#45;&gt;Diretor -->
<g id="edge38" class="edge"><title>Escola&#45;&gt;Diretor</title>
<path fill="none" stroke="black" d="M468.354,-755.183C402.424,-749.512 288.506,-737.807 250,-722 87.8563,-655.439 0,-592.274 0,-417 0,-417 0,-417 0,-279 0,-235.444 305.83,-203.05 431.777,-191.556"/>
<ellipse fill="none" stroke="black" cx="472.555" cy="-755.539" rx="4" ry="4"/>
<ellipse fill="black" stroke="black" cx="435.824" cy="-191.189" rx="4" ry="4"/>
</g>
<!-- Escola&#45;&gt;Ambiente -->
<g id="edge48" class="edge"><title>Escola&#45;&gt;Ambiente</title>
<path fill="none" stroke="black" d="M492.525,-737.07C471.499,-718.231 441.213,-691.095 419.385,-671.537"/>
<ellipse fill="none" stroke="black" cx="495.577" cy="-739.805" rx="4.00002" ry="4.00002"/>
<polygon fill="black" stroke="black" points="419.207,-671.377 414.762,-661.353 415.483,-668.041 411.759,-664.704 411.759,-664.704 411.759,-664.704 415.483,-668.041 408.756,-668.056 419.207,-671.377 419.207,-671.377"/>
</g>
<!-- Escola&#45;&gt;Turma -->
<g id="edge42" class="edge"><title>Escola&#45;&gt;Turma</title>
<path fill="none" stroke="black" d="M469.924,-751.128C423.726,-740.599 355.849,-716.963 325,-666 309.956,-641.147 313.664,-607.089 319.259,-583.276"/>
<ellipse fill="none" stroke="black" cx="474.09" cy="-752.035" rx="4.00001" ry="4.00001"/>
<polygon fill="black" stroke="black" points="319.299,-583.12 326.168,-574.572 320.556,-578.28 321.812,-573.441 321.812,-573.441 321.812,-573.441 320.556,-578.28 317.457,-572.31 319.299,-583.12 319.299,-583.12"/>
</g>
<!-- Lotacao -->
<g id="node20" class="node"><title>Lotacao</title>
<ellipse fill="none" stroke="black" cx="1484" cy="-187" rx="50.2046" ry="18.3848"/>
<text text-anchor="middle" x="1484" y="-183.4" font-family="Times Roman,serif" font-size="14.00">Lotacao</text>
</g>
<!-- Escola&#45;&gt;Lotacao -->
<g id="edge44" class="edge"><title>Escola&#45;&gt;Lotacao</title>
<path fill="none" stroke="black" d="M543.725,-737.326C565.963,-716.693 594,-683.451 594,-647 594,-647 594,-647 594,-417 594,-154.708 892.472,-263.965 1201,-224 1300.05,-211.17 1327.03,-225.438 1425,-206 1429.39,-205.128 1433.92,-204.038 1438.42,-202.822"/>
<ellipse fill="none" stroke="black" cx="540.609" cy="-740.128" rx="4.00002" ry="4.00002"/>
<polygon fill="black" stroke="black" points="1438.55,-202.784 1449.41,-204.322 1443.35,-201.392 1448.15,-200 1448.15,-200 1448.15,-200 1443.35,-201.392 1446.9,-195.678 1438.55,-202.784 1438.55,-202.784"/>
<text text-anchor="middle" x="622.5" y="-459.4" font-family="Times Roman,serif" font-size="14.00">lotacoes</text>
</g>
<!-- Setting -->
<g id="node38" class="node"><title>Setting</title>
<ellipse fill="none" stroke="black" cx="231" cy="-647" rx="46.8775" ry="18.3848"/>
<text text-anchor="middle" x="231" y="-643.4" font-family="Times Roman,serif" font-size="14.00">Setting</text>
</g>
<!-- Escola&#45;&gt;Setting -->
<g id="edge46" class="edge"><title>Escola&#45;&gt;Setting</title>
<path fill="none" stroke="black" d="M468.35,-755.051C411.422,-749.734 321.214,-738.94 292,-722 272.521,-710.705 256.706,-690.651 246.064,-674.121"/>
<ellipse fill="none" stroke="black" cx="472.514" cy="-755.431" rx="4" ry="4"/>
<polygon fill="black" stroke="black" points="245.927,-673.898 244.528,-663.022 243.31,-669.638 240.693,-665.378 240.693,-665.378 240.693,-665.378 243.31,-669.638 236.859,-667.733 245.927,-673.898 245.927,-673.898"/>
</g>
<!-- Escola&#45;&gt;Matrize -->
<g id="edge40" class="edge"><title>Escola&#45;&gt;Matrize</title>
<path fill="none" stroke="black" d="M517,-730.029C517,-713.426 517,-692.654 517,-676.039"/>
<polygon fill="black" stroke="black" points="517,-730.254 512.5,-740.254 517,-735.254 517,-740.254 517,-740.254 517,-740.254 517,-735.254 521.5,-740.254 517,-730.254 517,-730.254"/>
<polygon fill="black" stroke="black" points="517,-675.807 521.5,-665.807 517,-670.807 517,-665.807 517,-665.807 517,-665.807 517,-670.807 512.5,-665.807 517,-675.807 517,-675.807"/>
</g>
<!-- Esfera -->
<g id="node18" class="node"><title>Esfera</title>
<ellipse fill="none" stroke="black" cx="812" cy="-955" rx="41.2167" ry="18.3848"/>
<text text-anchor="middle" x="812" y="-951.4" font-family="Times Roman,serif" font-size="14.00">Esfera</text>
</g>
<!-- Esfera&#45;&gt;Escola -->
<g id="edge58" class="edge"><title>Esfera&#45;&gt;Escola</title>
<path fill="none" stroke="black" d="M774.017,-939.557C732.897,-921.945 666.321,-890.778 615,-854 586.264,-833.407 557.737,-804.55 538.935,-784.056"/>
<ellipse fill="none" stroke="black" cx="777.707" cy="-941.124" rx="4.00002" ry="4.00002"/>
<polygon fill="black" stroke="black" points="538.694,-783.79 535.32,-773.356 535.339,-780.083 531.984,-776.376 531.984,-776.376 531.984,-776.376 535.339,-780.083 528.648,-779.396 538.694,-783.79 538.694,-783.79"/>
</g>
<!-- Esfera&#45;&gt;Orgao -->
<g id="edge56" class="edge"><title>Esfera&#45;&gt;Orgao</title>
<path fill="none" stroke="black" d="M858.18,-946.259C974.754,-924.195 1280.04,-866.412 1398.27,-844.035"/>
<ellipse fill="none" stroke="black" cx="854.162" cy="-947.02" rx="4.00001" ry="4.00001"/>
<polygon fill="black" stroke="black" points="1398.29,-844.03 1408.96,-846.591 1403.21,-843.1 1408.12,-842.17 1408.12,-842.17 1408.12,-842.17 1403.21,-843.1 1407.28,-837.748 1398.29,-844.03 1398.29,-844.03"/>
</g>
<!-- Quadro -->
<g id="node43" class="node"><title>Quadro</title>
<ellipse fill="none" stroke="black" cx="1282" cy="-835" rx="48.0833" ry="18.3848"/>
<text text-anchor="middle" x="1282" y="-831.4" font-family="Times Roman,serif" font-size="14.00">Quadro</text>
</g>
<!-- Esfera&#45;&gt;Quadro -->
<g id="edge54" class="edge"><title>Esfera&#45;&gt;Quadro</title>
<path fill="none" stroke="black" d="M855.595,-943.869C942.988,-921.556 1139.14,-871.474 1231.76,-847.827"/>
<ellipse fill="none" stroke="black" cx="851.588" cy="-944.892" rx="4.00001" ry="4.00001"/>
<polygon fill="black" stroke="black" points="1232.04,-847.756 1242.84,-849.643 1236.88,-846.519 1241.73,-845.282 1241.73,-845.282 1241.73,-845.282 1236.88,-846.519 1240.61,-840.922 1232.04,-847.756 1232.04,-847.756"/>
</g>
<!-- Folha -->
<g id="node47" class="node"><title>Folha</title>
<ellipse fill="none" stroke="black" cx="1271" cy="-759" rx="36.977" ry="18.3848"/>
<text text-anchor="middle" x="1271" y="-755.4" font-family="Times Roman,serif" font-size="14.00">Folha</text>
</g>
<!-- Esfera&#45;&gt;Folha -->
<g id="edge52" class="edge"><title>Esfera&#45;&gt;Folha</title>
<path fill="none" stroke="black" d="M849.599,-938.945C935.867,-902.107 1147.21,-811.86 1233.44,-775.038"/>
<ellipse fill="none" stroke="black" cx="845.795" cy="-940.569" rx="4.00002" ry="4.00002"/>
<polygon fill="black" stroke="black" points="1233.64,-774.952 1244.61,-775.164 1238.24,-772.989 1242.84,-771.025 1242.84,-771.025 1242.84,-771.025 1238.24,-772.989 1241.07,-766.887 1233.64,-774.952 1233.64,-774.952"/>
</g>
<!-- Pessoa -->
<g id="node19" class="node"><title>Pessoa</title>
<ellipse fill="none" stroke="black" cx="1852" cy="-371" rx="44.0472" ry="18.3848"/>
<text text-anchor="middle" x="1852" y="-367.4" font-family="Times Roman,serif" font-size="14.00">Pessoa</text>
</g>
<!-- Formacao -->
<g id="node29" class="node"><title>Formacao</title>
<ellipse fill="none" stroke="black" cx="1852" cy="-279" rx="58.1882" ry="18.3848"/>
<text text-anchor="middle" x="1852" y="-275.4" font-family="Times Roman,serif" font-size="14.00">Formacao</text>
</g>
<!-- Pessoa&#45;&gt;Formacao -->
<g id="edge62" class="edge"><title>Pessoa&#45;&gt;Formacao</title>
<path fill="none" stroke="black" d="M1852,-344.029C1852,-332.599 1852,-319.267 1852,-307.66"/>
<ellipse fill="none" stroke="black" cx="1852" cy="-348.382" rx="4" ry="4"/>
<polygon fill="black" stroke="black" points="1852,-307.59 1856.5,-297.59 1852,-302.59 1852,-297.59 1852,-297.59 1852,-297.59 1852,-302.59 1847.5,-297.59 1852,-307.59 1852,-307.59"/>
<text text-anchor="middle" x="1887" y="-321.4" font-family="Times Roman,serif" font-size="14.00">formacoes</text>
</g>
<!-- BoletimPessoal -->
<g id="node35" class="node"><title>BoletimPessoal</title>
<ellipse fill="none" stroke="black" cx="2012" cy="-279" rx="84.1457" ry="18.3848"/>
<text text-anchor="middle" x="2012" y="-275.4" font-family="Times Roman,serif" font-size="14.00">BoletimPessoal</text>
</g>
<!-- Pessoa&#45;&gt;BoletimPessoal -->
<g id="edge60" class="edge"><title>Pessoa&#45;&gt;BoletimPessoal</title>
<path fill="none" stroke="black" d="M1888.82,-353.541C1900.82,-347.602 1914.1,-340.753 1926,-334 1943.14,-324.272 1961.61,-312.62 1977.02,-302.55"/>
<ellipse fill="none" stroke="black" cx="1885.14" cy="-355.351" rx="4.00002" ry="4.00002"/>
<polygon fill="black" stroke="black" points="1977.36,-302.328 1988.19,-300.589 1981.54,-299.579 1985.71,-296.831 1985.71,-296.831 1985.71,-296.831 1981.54,-299.579 1983.24,-293.072 1977.36,-302.328 1977.36,-302.328"/>
<text text-anchor="middle" x="1981.5" y="-321.4" font-family="Times Roman,serif" font-size="14.00">boletins</text>
</g>
<!-- Pessoa&#45;&gt;Funcionario -->
<g id="edge64" class="edge"><title>Pessoa&#45;&gt;Funcionario</title>
<path fill="none" stroke="black" d="M1817.86,-352.229C1793.34,-339.695 1759.09,-324.078 1727,-316 1655.11,-297.903 1449.37,-286.867 1335.74,-281.978"/>
<ellipse fill="none" stroke="black" cx="1821.59" cy="-354.167" rx="4.00002" ry="4.00002"/>
<polygon fill="black" stroke="black" points="1335.7,-281.976 1325.9,-277.056 1330.7,-281.764 1325.71,-281.552 1325.71,-281.552 1325.71,-281.552 1330.7,-281.764 1325.52,-286.048 1335.7,-281.976 1335.7,-281.976"/>
</g>
<!-- Lotacao&#45;&gt;Processo -->
<g id="edge66" class="edge"><title>Lotacao&#45;&gt;Processo</title>
<path fill="none" stroke="black" d="M1439.1,-172.031C1434.36,-170.603 1429.59,-169.231 1425,-168 1354.32,-149.069 1271.75,-132.108 1217.8,-121.707"/>
<ellipse fill="none" stroke="black" cx="1443.21" cy="-173.294" rx="4.00001" ry="4.00001"/>
<polygon fill="black" stroke="black" points="1217.55,-121.661 1208.58,-115.359 1212.64,-120.72 1207.73,-119.779 1207.73,-119.779 1207.73,-119.779 1212.64,-120.72 1206.89,-124.199 1217.55,-121.661 1217.55,-121.661"/>
</g>
<!-- AutoNum -->
<g id="node21" class="node"><title>AutoNum</title>
<ellipse fill="none" stroke="black" cx="1974" cy="-955" rx="57.9828" ry="18.3848"/>
<text text-anchor="middle" x="1974" y="-951.4" font-family="Times Roman,serif" font-size="14.00">AutoNum</text>
</g>
<!-- Tipo -->
<g id="node22" class="node"><title>Tipo</title>
<ellipse fill="none" stroke="black" cx="1141" cy="-463" rx="31.8198" ry="18.3848"/>
<text text-anchor="middle" x="1141" y="-459.4" font-family="Times Roman,serif" font-size="14.00">Tipo</text>
</g>
<!-- Cargo -->
<g id="node31" class="node"><title>Cargo</title>
<ellipse fill="none" stroke="black" cx="1214" cy="-371" rx="39.8075" ry="18.3848"/>
<text text-anchor="middle" x="1214" y="-367.4" font-family="Times Roman,serif" font-size="14.00">Cargo</text>
</g>
<!-- Tipo&#45;&gt;Cargo -->
<g id="edge70" class="edge"><title>Tipo&#45;&gt;Cargo</title>
<path fill="none" stroke="black" d="M1159.55,-439.618C1170.03,-426.409 1183.14,-409.888 1193.87,-396.367"/>
<ellipse fill="none" stroke="black" cx="1156.88" cy="-442.992" rx="4.00002" ry="4.00002"/>
<polygon fill="black" stroke="black" points="1193.98,-396.226 1203.72,-391.189 1197.09,-392.309 1200.2,-388.392 1200.2,-388.392 1200.2,-388.392 1197.09,-392.309 1196.67,-385.595 1193.98,-396.226 1193.98,-396.226"/>
</g>
<!-- Tipo&#45;&gt;DescricaoCargo -->
<g id="edge68" class="edge"><title>Tipo&#45;&gt;DescricaoCargo</title>
<path fill="none" stroke="black" d="M1109.13,-447.405C1078.36,-432.347 1031.51,-409.419 997.153,-392.607"/>
<ellipse fill="none" stroke="black" cx="1112.83" cy="-449.214" rx="4.00002" ry="4.00002"/>
<polygon fill="black" stroke="black" points="996.8,-392.434 989.796,-383.997 992.309,-390.236 987.818,-388.038 987.818,-388.038 987.818,-388.038 992.309,-390.236 985.84,-392.08 996.8,-392.434 996.8,-392.434"/>
</g>
<!-- Departamento&#45;&gt;Departamento -->
<g id="edge74" class="edge"><title>Departamento&#45;&gt;Departamento</title>
<path fill="none" stroke="black" d="M1530.79,-764.973C1540.04,-763.831 1546,-761.84 1546,-759 1546,-756.385 1540.95,-754.489 1532.93,-753.314"/>
<ellipse fill="none" stroke="black" cx="1526.71" cy="-765.345" rx="4" ry="4"/>
<polygon fill="black" stroke="black" points="1532.68,-753.289 1523.17,-747.815 1527.7,-752.791 1522.73,-752.293 1522.73,-752.293 1522.73,-752.293 1527.7,-752.791 1522.28,-756.771 1532.68,-753.289 1532.68,-753.289"/>
<text text-anchor="middle" x="1620" y="-755.4" font-family="Times Roman,serif" font-size="14.00">departamentos_filhos</text>
</g>
<!-- Unidade -->
<g id="node86" class="node"><title>Unidade</title>
<ellipse fill="none" stroke="black" cx="1446" cy="-647" rx="51.1176" ry="18.3848"/>
<text text-anchor="middle" x="1446" y="-643.4" font-family="Times Roman,serif" font-size="14.00">Unidade</text>
</g>
<!-- Departamento&#45;&gt;Unidade -->
<g id="edge72" class="edge"><title>Departamento&#45;&gt;Unidade</title>
<path fill="none" stroke="black" d="M1446,-732.242C1446,-715.273 1446,-693.325 1446,-675.95"/>
<ellipse fill="none" stroke="black" cx="1446" cy="-736.254" rx="4" ry="4"/>
<polygon fill="black" stroke="black" points="1446,-675.807 1450.5,-665.807 1446,-670.807 1446,-665.807 1446,-665.807 1446,-665.807 1446,-670.807 1441.5,-665.807 1446,-675.807 1446,-675.807"/>
</g>
<!-- Ability -->
<g id="node24" class="node"><title>Ability</title>
<polygon fill="none" stroke="black" points="2110,-973 2050,-973 2050,-937 2110,-937 2110,-973"/>
<text text-anchor="middle" x="2080" y="-951.4" font-family="Times Roman,serif" font-size="14.00">Ability</text>
</g>
<!-- Municipio -->
<g id="node25" class="node"><title>Municipio</title>
<ellipse fill="none" stroke="black" cx="714" cy="-835" rx="56.7776" ry="18.3848"/>
<text text-anchor="middle" x="714" y="-831.4" font-family="Times Roman,serif" font-size="14.00">Municipio</text>
</g>
<!-- Municipio&#45;&gt;Escola -->
<g id="edge80" class="edge"><title>Municipio&#45;&gt;Escola</title>
<path fill="none" stroke="black" d="M678.867,-814.71C666.786,-808.214 653.021,-801.332 640,-796 615.081,-785.797 586.305,-776.988 562.853,-770.527"/>
<ellipse fill="none" stroke="black" cx="682.639" cy="-816.769" rx="4.00002" ry="4.00002"/>
<polygon fill="black" stroke="black" points="562.809,-770.515 554.33,-763.56 557.982,-769.21 553.156,-767.904 553.156,-767.904 553.156,-767.904 557.982,-769.21 551.981,-772.248 562.809,-770.515 562.809,-770.515"/>
</g>
<!-- Distrito -->
<g id="node33" class="node"><title>Distrito</title>
<ellipse fill="none" stroke="black" cx="1010" cy="-703" rx="48.0833" ry="18.3848"/>
<text text-anchor="middle" x="1010" y="-699.4" font-family="Times Roman,serif" font-size="14.00">Distrito</text>
</g>
<!-- Municipio&#45;&gt;Distrito -->
<g id="edge76" class="edge"><title>Municipio&#45;&gt;Distrito</title>
<path fill="none" stroke="black" d="M749.167,-814.683C760.472,-808.423 773.141,-801.686 785,-796 846.556,-766.483 920,-737.193 965.829,-719.593"/>
<ellipse fill="none" stroke="black" cx="745.449" cy="-816.761" rx="4.00002" ry="4.00002"/>
<polygon fill="black" stroke="black" points="965.834,-719.59 976.782,-720.221 970.505,-717.804 975.175,-716.018 975.175,-716.018 975.175,-716.018 970.505,-717.804 973.567,-711.815 965.834,-719.59 965.834,-719.59"/>
</g>
<!-- Municipio&#45;&gt;Funcionario -->
<g id="edge78" class="edge"><title>Municipio&#45;&gt;Funcionario</title>
<path fill="none" stroke="black" d="M695.922,-809.99C687.369,-795.757 679,-777.184 679,-759 679,-759 679,-759 679,-509 679,-438.121 603.968,-405.027 651,-352 685.596,-312.994 1024.66,-290.86 1180.44,-282.677"/>
<ellipse fill="none" stroke="black" cx="698.228" cy="-813.633" rx="4.00002" ry="4.00002"/>
<polygon fill="black" stroke="black" points="1180.9,-282.654 1191.12,-286.629 1185.89,-282.395 1190.89,-282.135 1190.89,-282.135 1190.89,-282.135 1185.89,-282.395 1190.65,-277.641 1180.9,-282.654 1180.9,-282.654"/>
</g>
<!-- Estado -->
<g id="node26" class="node"><title>Estado</title>
<ellipse fill="none" stroke="black" cx="470" cy="-955" rx="44.0472" ry="18.3848"/>
<text text-anchor="middle" x="470" y="-951.4" font-family="Times Roman,serif" font-size="14.00">Estado</text>
</g>
<!-- Estado&#45;&gt;Cidade -->
<g id="edge82" class="edge"><title>Estado&#45;&gt;Cidade</title>
<path fill="none" stroke="black" d="M470,-928.053C470,-908.923 470,-883.278 470,-863.755"/>
<ellipse fill="none" stroke="black" cx="470" cy="-932.25" rx="4" ry="4"/>
<polygon fill="black" stroke="black" points="470,-863.618 474.5,-853.618 470,-858.618 470,-853.618 470,-853.618 470,-853.618 470,-858.618 465.5,-853.618 470,-863.618 470,-863.618"/>
</g>
<!-- ReferenciaNivei -->
<g id="node28" class="node"><title>ReferenciaNivei</title>
<ellipse fill="none" stroke="black" cx="1435" cy="-371" rx="86.9741" ry="18.3848"/>
<text text-anchor="middle" x="1435" y="-367.4" font-family="Times Roman,serif" font-size="14.00">ReferenciaNivei</text>
</g>
<!-- ReferenciaNivei&#45;&gt;Funcionario -->
<g id="edge84" class="edge"><title>ReferenciaNivei&#45;&gt;Funcionario</title>
<path fill="none" stroke="black" d="M1396.57,-349.538C1377.81,-339.197 1354.84,-326.739 1334,-316 1323.41,-310.54 1311.89,-304.821 1301.09,-299.557"/>
<ellipse fill="none" stroke="black" cx="1400.3" cy="-351.601" rx="4.00002" ry="4.00002"/>
<polygon fill="black" stroke="black" points="1300.83,-299.431 1293.8,-291.017 1296.33,-297.248 1291.84,-295.065 1291.84,-295.065 1291.84,-295.065 1296.33,-297.248 1289.87,-299.114 1300.83,-299.431 1300.83,-299.431"/>
</g>
<!-- Categoria -->
<g id="node30" class="node"><title>Categoria</title>
<ellipse fill="none" stroke="black" cx="1598" cy="-371" rx="58.1882" ry="18.3848"/>
<text text-anchor="middle" x="1598" y="-367.4" font-family="Times Roman,serif" font-size="14.00">Categoria</text>
</g>
<!-- Categoria&#45;&gt;Funcionario -->
<g id="edge86" class="edge"><title>Categoria&#45;&gt;Funcionario</title>
<path fill="none" stroke="black" d="M1545.06,-355.907C1540.31,-354.577 1535.57,-353.258 1531,-352 1457.53,-331.761 1372.71,-309.206 1317.36,-294.598"/>
<polygon fill="black" stroke="black" points="1545.15,-355.933 1553.56,-362.972 1549.96,-357.286 1554.78,-358.64 1554.78,-358.64 1554.78,-358.64 1549.96,-357.286 1556,-354.308 1545.15,-355.933 1545.15,-355.933"/>
<polygon fill="black" stroke="black" points="1317.05,-294.515 1308.53,-287.614 1312.21,-293.24 1307.38,-291.965 1307.38,-291.965 1307.38,-291.965 1312.21,-293.24 1306.23,-296.316 1317.05,-294.515 1317.05,-294.515"/>
</g>
<!-- Cargo&#45;&gt;Funcionario -->
<g id="edge88" class="edge"><title>Cargo&#45;&gt;Funcionario</title>
<path fill="none" stroke="black" d="M1226.31,-345.258C1232.05,-333.264 1238.88,-318.974 1244.73,-306.74"/>
<ellipse fill="none" stroke="black" cx="1224.42" cy="-349.215" rx="4.00002" ry="4.00002"/>
<polygon fill="black" stroke="black" points="1244.86,-306.475 1253.23,-299.395 1247.02,-301.964 1249.17,-297.453 1249.17,-297.453 1249.17,-297.453 1247.02,-301.964 1245.11,-295.512 1244.86,-306.475 1244.86,-306.475"/>
</g>
<!-- Arquivo -->
<g id="node32" class="node"><title>Arquivo</title>
<ellipse fill="none" stroke="black" cx="1107" cy="-371" rx="48.9975" ry="18.3848"/>
<text text-anchor="middle" x="1107" y="-367.4" font-family="Times Roman,serif" font-size="14.00">Arquivo</text>
</g>
<!-- Arquivo&#45;&gt;Funcionario -->
<g id="edge90" class="edge"><title>Arquivo&#45;&gt;Funcionario</title>
<path fill="none" stroke="black" d="M1139.91,-350.949C1163.92,-336.323 1196.46,-316.495 1221.3,-301.358"/>
<ellipse fill="none" stroke="black" cx="1136.37" cy="-353.103" rx="4.00002" ry="4.00002"/>
<polygon fill="black" stroke="black" points="1221.54,-301.214 1232.42,-299.854 1225.81,-298.613 1230.08,-296.011 1230.08,-296.011 1230.08,-296.011 1225.81,-298.613 1227.74,-292.168 1221.54,-301.214 1221.54,-301.214"/>
</g>
<!-- Distrito&#45;&gt;Funcionario -->
<g id="edge92" class="edge"><title>Distrito&#45;&gt;Funcionario</title>
<path fill="none" stroke="black" d="M1062.22,-694.385C1141.22,-679.854 1282,-647.443 1282,-601 1282,-601 1282,-601 1282,-371 1282,-349.096 1275.55,-325.181 1269.34,-307.225"/>
<ellipse fill="none" stroke="black" cx="1058.24" cy="-695.106" rx="4.00001" ry="4.00001"/>
<polygon fill="black" stroke="black" points="1269.28,-307.055 1270.09,-296.119 1267.57,-302.357 1265.86,-297.658 1265.86,-297.658 1265.86,-297.658 1267.57,-302.357 1261.63,-299.197 1269.28,-307.055 1269.28,-307.055"/>
</g>
<!-- Poder -->
<g id="node36" class="node"><title>Poder</title>
<ellipse fill="none" stroke="black" cx="1328" cy="-955" rx="39.0967" ry="18.3848"/>
<text text-anchor="middle" x="1328" y="-951.4" font-family="Times Roman,serif" font-size="14.00">Poder</text>
</g>
<!-- Poder&#45;&gt;Orgao -->
<g id="edge96" class="edge"><title>Poder&#45;&gt;Orgao</title>
<path fill="none" stroke="black" d="M1348.21,-931.201C1356.19,-922.956 1365.87,-914.23 1376,-908 1397.19,-894.973 1411.65,-907.832 1429,-890 1435.96,-882.845 1440.08,-872.901 1442.51,-863.434"/>
<ellipse fill="none" stroke="black" cx="1345.19" cy="-934.438" rx="4.00002" ry="4.00002"/>
<polygon fill="black" stroke="black" points="1442.54,-863.3 1448.95,-854.406 1443.54,-858.401 1444.54,-853.503 1444.54,-853.503 1444.54,-853.503 1443.54,-858.401 1440.13,-852.6 1442.54,-863.3 1442.54,-863.3"/>
</g>
<!-- Poder&#45;&gt;Quadro -->
<g id="edge94" class="edge"><title>Poder&#45;&gt;Quadro</title>
<path fill="none" stroke="black" d="M1318.09,-929.153C1310.61,-909.635 1300.36,-882.888 1292.69,-862.888"/>
<ellipse fill="none" stroke="black" cx="1319.58" cy="-933.04" rx="4.00001" ry="4.00001"/>
<polygon fill="black" stroke="black" points="1292.63,-862.734 1293.25,-851.786 1290.84,-858.066 1289.05,-853.397 1289.05,-853.397 1289.05,-853.397 1290.84,-858.066 1284.85,-855.008 1292.63,-862.734 1292.63,-862.734"/>
</g>
<!-- Status -->
<g id="node37" class="node"><title>Status</title>
<ellipse fill="none" stroke="black" cx="2172" cy="-955" rx="43.8406" ry="18.3848"/>
<text text-anchor="middle" x="2172" y="-951.4" font-family="Times Roman,serif" font-size="14.00">Status</text>
</g>
<!-- DescricaoCargo&#45;&gt;Funcionario -->
<g id="edge98" class="edge"><title>DescricaoCargo&#45;&gt;Funcionario</title>
<path fill="none" stroke="black" d="M1011.04,-353.492C1066.03,-336.905 1148.05,-312.165 1202.27,-295.811"/>
<ellipse fill="none" stroke="black" cx="1007.19" cy="-354.653" rx="4.00001" ry="4.00001"/>
<polygon fill="black" stroke="black" points="1202.48,-295.747 1213.35,-297.167 1207.27,-294.303 1212.05,-292.859 1212.05,-292.859 1212.05,-292.859 1207.27,-294.303 1210.76,-288.551 1202.48,-295.747 1202.48,-295.747"/>
</g>
<!-- Funcionario&#45;&gt;Diretor -->
<g id="edge2" class="edge"><title>Funcionario&#45;&gt;Diretor</title>
<path fill="none" stroke="black" d="M1195.4,-271.549C1043.9,-253.519 660.385,-207.874 529.539,-192.301"/>
</g>
<!-- Funcionario&#45;&gt;BoletimFuncional -->
<g id="edge102" class="edge"><title>Funcionario&#45;&gt;BoletimFuncional</title>
<path fill="none" stroke="black" d="M1234.18,-254.916C1221.39,-241.988 1205.62,-226.046 1192.58,-212.857"/>
<ellipse fill="none" stroke="black" cx="1237.21" cy="-257.98" rx="4.00002" ry="4.00002"/>
<polygon fill="black" stroke="black" points="1192.29,-212.563 1188.45,-202.289 1188.77,-209.008 1185.25,-205.453 1185.25,-205.453 1185.25,-205.453 1188.77,-209.008 1182.05,-208.618 1192.29,-212.563 1192.29,-212.563"/>
<text text-anchor="middle" x="1248.5" y="-229.4" font-family="Times Roman,serif" font-size="14.00">boletins</text>
</g>
<!-- Funcionario&#45;&gt;Processo -->
<g id="edge100" class="edge"><title>Funcionario&#45;&gt;Processo</title>
<path fill="none" stroke="black" d="M1198.86,-264.765C1147.54,-251.073 1079.02,-229.099 1063,-206 1053.38,-192.121 1054.61,-182.659 1063,-168 1073.46,-149.726 1092.3,-136.736 1110.62,-127.819"/>
<ellipse fill="none" stroke="black" cx="1202.75" cy="-265.789" rx="4.00001" ry="4.00001"/>
<polygon fill="black" stroke="black" points="1110.71,-127.778 1121.68,-127.74 1115.27,-125.71 1119.82,-123.643 1119.82,-123.643 1119.82,-123.643 1115.27,-125.71 1117.96,-119.545 1110.71,-127.778 1110.71,-127.778"/>
</g>
<!-- Funcionario&#45;&gt;Lotacao -->
<g id="edge104" class="edge"><title>Funcionario&#45;&gt;Lotacao</title>
<path fill="none" stroke="black" d="M1318.11,-264.926C1340.17,-258.94 1365.09,-251.199 1387,-242 1409.09,-232.725 1432.49,-219.564 1450.77,-208.443"/>
<ellipse fill="none" stroke="black" cx="1313.99" cy="-266.022" rx="4.00001" ry="4.00001"/>
<polygon fill="black" stroke="black" points="1450.8,-208.427 1461.67,-207.002 1455.05,-205.8 1459.31,-203.173 1459.31,-203.173 1459.31,-203.173 1455.05,-205.8 1456.94,-199.344 1450.8,-208.427 1450.8,-208.427"/>
<text text-anchor="middle" x="1450.5" y="-229.4" font-family="Times Roman,serif" font-size="14.00">lotacoes</text>
</g>
<!-- Categorium -->
<g id="node104" class="node"><title>Categorium</title>
<ellipse fill="none" stroke="black" cx="1348" cy="-187" rx="68.0887" ry="18.3848"/>
<text text-anchor="middle" x="1348" y="-183.4" font-family="Times Roman,serif" font-size="14.00">Categorium</text>
</g>
<!-- Funcionario&#45;&gt;Categorium -->
<g id="edge106" class="edge"><title>Funcionario&#45;&gt;Categorium</title>
<path fill="none" stroke="black" d="M1282.82,-253.626C1295.4,-240.771 1310.63,-225.204 1323.2,-212.351"/>
<polygon fill="black" stroke="black" points="1282.77,-253.675 1272.56,-257.677 1279.28,-257.25 1275.78,-260.824 1275.78,-260.824 1275.78,-260.824 1279.28,-257.25 1279,-263.971 1282.77,-253.675 1282.77,-253.675"/>
<polygon fill="black" stroke="black" points="1323.26,-212.287 1333.47,-208.285 1326.76,-208.713 1330.26,-205.138 1330.26,-205.138 1330.26,-205.138 1326.76,-208.713 1327.04,-201.992 1323.26,-212.287 1323.26,-212.287"/>
<text text-anchor="middle" x="1347.5" y="-229.4" font-family="Times Roman,serif" font-size="14.00">categorias</text>
</g>
<!-- Orgao&#45;&gt;Escola -->
<g id="edge114" class="edge"><title>Orgao&#45;&gt;Escola</title>
<path fill="none" stroke="black" d="M1400.6,-825.837C1381.63,-822.295 1359.32,-818.501 1339,-816 1048.71,-780.264 697.768,-765.252 568.234,-760.655"/>
<ellipse fill="none" stroke="black" cx="1404.58" cy="-826.59" rx="4.00001" ry="4.00001"/>
<polygon fill="black" stroke="black" points="568.197,-760.654 558.36,-755.807 563.2,-760.479 558.203,-760.305 558.203,-760.305 558.203,-760.305 563.2,-760.479 558.046,-764.802 568.197,-760.654 568.197,-760.654"/>
</g>
<!-- Orgao&#45;&gt;Lotacao -->
<g id="edge110" class="edge"><title>Orgao&#45;&gt;Lotacao</title>
<path fill="none" stroke="black" d="M1492.1,-826.434C1509.88,-823.147 1530.38,-819.376 1549,-816 1598.06,-807.104 1766,-808.858 1766,-759 1766,-759 1766,-759 1766,-279 1766,-232.283 1624.36,-205.574 1541.84,-193.979"/>
<ellipse fill="none" stroke="black" cx="1488.08" cy="-827.179" rx="4.00001" ry="4.00001"/>
<polygon fill="black" stroke="black" points="1541.74,-193.966 1532.45,-188.148 1536.79,-193.286 1531.84,-192.606 1531.84,-192.606 1531.84,-192.606 1536.79,-193.286 1531.23,-197.064 1541.74,-193.966 1541.74,-193.966"/>
<text text-anchor="middle" x="1794.5" y="-505.4" font-family="Times Roman,serif" font-size="14.00">lotacoes</text>
</g>
<!-- Orgao&#45;&gt;Departamento -->
<g id="edge108" class="edge"><title>Orgao&#45;&gt;Departamento</title>
<path fill="none" stroke="black" d="M1446,-808.073C1446,-801.449 1446,-794.332 1446,-787.63"/>
<ellipse fill="none" stroke="black" cx="1446" cy="-812.213" rx="4" ry="4"/>
<polygon fill="black" stroke="black" points="1446,-787.57 1450.5,-777.57 1446,-782.57 1446,-777.57 1446,-777.57 1446,-777.57 1446,-782.57 1441.5,-777.57 1446,-787.57 1446,-787.57"/>
</g>
<!-- Orgao&#45;&gt;Funcionario -->
<g id="edge112" class="edge"><title>Orgao&#45;&gt;Funcionario</title>
<path fill="none" stroke="black" d="M1491.97,-826.257C1560.81,-812.944 1684.64,-788.074 1703,-778 1713.47,-772.255 1722,-770.942 1722,-759 1722,-759 1722,-759 1722,-417 1722,-356.875 1688.94,-335.315 1632,-316 1578.92,-297.994 1428.63,-287.491 1335.52,-282.531"/>
<ellipse fill="none" stroke="black" cx="1487.78" cy="-827.064" rx="4.00001" ry="4.00001"/>
<polygon fill="black" stroke="black" points="1335.29,-282.518 1325.54,-277.502 1330.29,-282.257 1325.3,-281.996 1325.3,-281.996 1325.3,-281.996 1330.29,-282.257 1325.06,-286.49 1335.29,-282.518 1335.29,-282.518"/>
</g>
<!-- Quadro&#45;&gt;Funcionario -->
<g id="edge118" class="edge"><title>Quadro&#45;&gt;Funcionario</title>
<path fill="none" stroke="black" d="M1298.24,-810.015C1304.38,-800.189 1311.27,-788.713 1317,-778 1351.59,-713.284 1341.72,-686.514 1386,-628 1491.26,-488.917 1776.92,-485.78 1665,-352 1623.89,-302.861 1442.25,-286.757 1336.03,-281.51"/>
<ellipse fill="none" stroke="black" cx="1296.06" cy="-813.462" rx="4.00002" ry="4.00002"/>
<polygon fill="black" stroke="black" points="1335.98,-281.508 1326.2,-276.54 1330.99,-281.271 1325.99,-281.035 1325.99,-281.035 1325.99,-281.035 1330.99,-281.271 1325.78,-285.53 1335.98,-281.508 1335.98,-281.508"/>
</g>
<!-- Quadro&#45;&gt;Folha -->
<g id="edge116" class="edge"><title>Quadro&#45;&gt;Folha</title>
<path fill="none" stroke="black" d="M1278.1,-808.073C1277.14,-801.449 1276.11,-794.332 1275.14,-787.63"/>
<ellipse fill="none" stroke="black" cx="1278.71" cy="-812.255" rx="4.00001" ry="4.00001"/>
<polygon fill="black" stroke="black" points="1275.12,-787.467 1278.14,-776.926 1274.4,-782.519 1273.69,-777.57 1273.69,-777.57 1273.69,-777.57 1274.4,-782.519 1269.23,-778.215 1275.12,-787.467 1275.12,-787.467"/>
</g>
<!-- TipoAmbiente -->
<g id="node44" class="node"><title>TipoAmbiente</title>
<ellipse fill="none" stroke="black" cx="2312" cy="-955" rx="77.9889" ry="18.3848"/>
<text text-anchor="middle" x="2312" y="-951.4" font-family="Times Roman,serif" font-size="14.00">TipoAmbiente</text>
</g>
<!-- Matrize&#45;&gt;Serie -->
<g id="edge122" class="edge"><title>Matrize&#45;&gt;Serie</title>
<path fill="none" stroke="black" d="M498.705,-619.984C496.941,-616.707 495.32,-613.336 494,-610 490.714,-601.696 488.371,-592.283 486.717,-583.621"/>
<polygon fill="black" stroke="black" points="498.86,-620.247 500.049,-631.148 501.394,-624.557 503.929,-628.867 503.929,-628.867 503.929,-628.867 501.394,-624.557 507.808,-626.587 498.86,-620.247 498.86,-620.247"/>
<polygon fill="black" stroke="black" points="486.682,-583.415 489.461,-572.807 485.853,-578.484 485.023,-573.554 485.023,-573.554 485.023,-573.554 485.853,-578.484 480.585,-574.3 486.682,-583.415 486.682,-583.415"/>
<text text-anchor="middle" x="514" y="-597.4" font-family="Times Roman,serif" font-size="14.00">series</text>
</g>
<!-- Matrize&#45;&gt;Disciplina -->
<g id="edge120" class="edge"><title>Matrize&#45;&gt;Disciplina</title>
<path fill="none" stroke="black" d="M482.404,-626.95C464.646,-614.377 445.08,-596.319 437,-574 427.252,-547.076 433.374,-514.351 440.32,-491.435"/>
<ellipse fill="none" stroke="black" cx="486.04" cy="-629.418" rx="4.00002" ry="4.00002"/>
<polygon fill="black" stroke="black" points="440.411,-491.158 447.794,-483.05 441.963,-486.405 443.516,-481.652 443.516,-481.652 443.516,-481.652 441.963,-486.405 439.238,-480.255 440.411,-491.158 440.411,-491.158"/>
</g>
<!-- Matrize&#45;&gt;Curriculo -->
<g id="edge124" class="edge"><title>Matrize&#45;&gt;Curriculo</title>
<path fill="none" stroke="black" d="M530.477,-621.338C531.928,-617.619 533.175,-613.772 534,-610 535.709,-602.185 534.356,-599.992 534,-592 530.911,-522.66 520.317,-441.675 514.288,-399.628"/>
<ellipse fill="none" stroke="black" cx="528.869" cy="-625.052" rx="4.00002" ry="4.00002"/>
<polygon fill="black" stroke="black" points="514.264,-399.462 517.278,-388.918 513.544,-394.514 512.825,-389.566 512.825,-389.566 512.825,-389.566 513.544,-394.514 508.372,-390.213 514.264,-399.462 514.264,-399.462"/>
</g>
<!-- SituacoesJuridica -->
<g id="node46" class="node"><title>SituacoesJuridica</title>
<ellipse fill="none" stroke="black" cx="754" cy="-371" rx="94.0452" ry="18.3848"/>
<text text-anchor="middle" x="754" y="-367.4" font-family="Times Roman,serif" font-size="14.00">SituacoesJuridica</text>
</g>
<!-- SituacoesJuridica&#45;&gt;Funcionario -->
<g id="edge126" class="edge"><title>SituacoesJuridica&#45;&gt;Funcionario</title>
<path fill="none" stroke="black" d="M830.789,-356.815C839.627,-355.188 848.51,-353.556 857,-352 974.644,-330.441 1111.74,-305.528 1191.33,-291.088"/>
<ellipse fill="none" stroke="black" cx="826.631" cy="-357.58" rx="4.00001" ry="4.00001"/>
<polygon fill="black" stroke="black" points="1191.38,-291.079 1202.02,-293.722 1196.3,-290.187 1201.21,-289.294 1201.21,-289.294 1201.21,-289.294 1196.3,-290.187 1200.41,-284.867 1191.38,-291.079 1191.38,-291.079"/>
</g>
<!-- Folha&#45;&gt;Funcionario -->
<g id="edge128" class="edge"><title>Folha&#45;&gt;Funcionario</title>
<path fill="none" stroke="black" d="M1288.74,-734.467C1302.76,-712.624 1320,-679.226 1320,-647 1320,-647 1320,-647 1320,-371 1320,-345.111 1302.91,-321.045 1286.67,-304.026"/>
<ellipse fill="none" stroke="black" cx="1286.34" cy="-738.08" rx="4.00002" ry="4.00002"/>
<polygon fill="black" stroke="black" points="1286.42,-303.777 1282.51,-293.532 1282.88,-300.249 1279.34,-296.72 1279.34,-296.72 1279.34,-296.72 1282.88,-300.249 1276.16,-299.909 1286.42,-303.777 1286.42,-303.777"/>
</g>
<!-- TipoAdministracao -->
<g id="node48" class="node"><title>TipoAdministracao</title>
<ellipse fill="none" stroke="black" cx="1486" cy="-955" rx="101.116" ry="18.3848"/>
<text text-anchor="middle" x="1486" y="-951.4" font-family="Times Roman,serif" font-size="14.00">TipoAdministracao</text>
</g>
<!-- TipoAdministracao&#45;&gt;Orgao -->
<g id="edge130" class="edge"><title>TipoAdministracao&#45;&gt;Orgao</title>
<path fill="none" stroke="black" d="M1477.54,-928.461C1472.3,-912.143 1465.37,-890.824 1459,-872 1458.01,-869.063 1456.96,-866.001 1455.9,-862.95"/>
<ellipse fill="none" stroke="black" cx="1478.9" cy="-932.689" rx="4.00001" ry="4.00001"/>
<polygon fill="black" stroke="black" points="1455.86,-862.854 1456.81,-851.93 1454.21,-858.134 1452.57,-853.414 1452.57,-853.414 1452.57,-853.414 1454.21,-858.134 1448.32,-854.899 1455.86,-862.854 1455.86,-862.854"/>
</g>
</g>
</svg>
